<svg xmlns="http://www.w3.org/2000/svg" width="64" height="64" viewBox="0 0 16.933 16.933"><path d="m 8.4474367,1.0590528 c -0.03993,0.003 -0.07854,0.01503 -0.1131659,0.03514 L 0.1315209,5.8575987 c -0.178208,0.1034899 -0.174513,0.3618921 0.0062,0.460942 l 1.9801519,1.0851761 v 2.3853208 h -0.529142 c -0.146922,0 -0.265605,0.118685 -0.265605,0.2656094 V 13.4621 l -0.50382291,1.10998 c -0.01817,0.03539 -0.02584,0.08212 -0.02584,0.108517 v 0.929634 c 0,0.352925 0.52965991,0.352925 0.52965991,0 v -0.66299 h 0.794231 v 0.66299 c 0,0.353024 0.529143,0.353024 0.529143,0 v -0.66299 h 0.793715 v 0.66299 c 0,0.353024 0.5291431,0.353024 0.5291431,0 v -0.929634 c 0.0019,-0.03871 -0.0093,-0.07463 -0.023249,-0.10645 L 3.4402147,13.439879 v -3.385233 c 0,-0.1461154 -0.1174239,-0.2656094 -0.2635379,-0.2656094 H 2.6470169 V 7.6936128 l 1.3182068,0.722934 v 2.4307942 c 0,0.337715 0.1593242,0.649881 0.4066752,0.906381 0.2473518,0.2565 0.5844698,0.469143 0.9900769,0.646455 0.811213,0.354623 1.8984579,0.564808 3.1030309,0.564808 1.2045722,0 2.2944013,-0.210185 3.1056143,-0.564808 0.405605,-0.177312 0.742723,-0.389955 0.990075,-0.646455 0.247352,-0.2565 0.406159,-0.568666 0.406159,-0.906381 V 8.4175808 l 3.830087,-2.0990411 c 0.180697,-0.09904 0.181797,-0.3574429 0.0036,-0.460942 L 8.5998759,1.0941908 c -0.04609,-0.02677 -0.09928,-0.03907 -0.1524392,-0.03514 z m 0.01964,0.569976 L 16.128797,6.0782517 8.4670768,10.280984 3.1467087,7.3634107 7.7431217,6.2699659 c 0.1237682,0.2779008 0.402126,0.4743756 0.7239551,0.4743759 0.4352221,5e-7 0.793197,-0.357981 0.793197,-0.793211 0,-0.4352322 -0.3579749,-0.7926951 -0.793197,-0.7926951 -0.359424,0 -0.6626971,0.245029 -0.7585771,0.575142 L 2.4573758,6.9851478 0.80328689,6.0782506 Z m 0,4.058559 c 0.149252,0 0.2635384,0.1142878 0.2635379,0.263543 -5e-7,0.1492559 -0.1142859,0.2656099 -0.2635379,0.2656099 -0.1492531,0 -0.2656049,-0.116355 -0.2656049,-0.2656099 0,-0.1492552 0.1163518,-0.263543 0.2656049,-0.263543 z M 4.4948866,8.7064457 8.3404746,10.81427 c 0.07906,0.04333 0.1746581,0.04333 0.2537201,0 L 12.437714,8.7074787 v 2.1398633 c 0,0.175299 -0.07757,0.352541 -0.257852,0.539489 -0.180281,0.186945 -0.461979,0.371708 -0.822137,0.529151 -0.720313,0.314888 -1.7502164,0.519335 -2.8927153,0.519335 -1.1425001,0 -2.171887,-0.204447 -2.8922011,-0.519335 C 5.2126518,11.758539 4.9330198,11.573776 4.7527409,11.386831 4.5724607,11.199883 4.4948867,11.022641 4.4948867,10.847342 Z M 1.8522718,10.31819 h 1.058286 v 2.910339 h -1.058286 z m -0.08216,3.439492 h 1.234494 l 0.292993,0.659891 h -1.828231 z" color="#000" font-family="sans-serif" font-weight="400" overflow="visible" style="line-height:normal;font-variant-ligatures:normal;font-variant-position:normal;font-variant-caps:normal;font-variant-numeric:normal;font-variant-alternates:normal;font-feature-settings:normal;text-indent:0;text-align:start;text-decoration-line:none;text-decoration-style:solid;text-decoration-color:#000;text-transform:none;text-orientation:mixed;shape-padding:0;isolation:auto;mix-blend-mode:normal"/></svg>