<svg xmlns="http://www.w3.org/2000/svg" viewBox="0 0 32 32"><path d="M16.17 16A5.17 5.17 0 1 0 11 10.83 5.17 5.17 0 0 0 16.17 16zm0-9a3.84 3.84 0 1 1-3.84 3.83A3.84 3.84 0 0 1 16.17 7zM18.71 17H13.62a7.3 7.3 0 0 0-7.29 7.29V25a.67.67 0 0 0 .67.67h8.89a.64.64 0 0 0 .2 0 .69.69 0 0 0 .2 0h9A.67.67 0 0 0 26 25v-.71A7.3 7.3 0 0 0 18.71 17zm-2.19 1.33l.82 4.14L16.09 24l-1.25-1.52.81-4.14zm-8.85 6a6 6 0 0 1 5.95-6h.67l-.82 4.19a.64.64 0 0 0 .14.55l1 1.26h-7zm17 0H17.53l1-1.26a.67.67 0 0 0 .14-.55l-.83-4.19h.83a6 6 0 0 1 6 6z" data-name="Layer 46"/></svg>