<svg id="visual" viewBox="0 0 411 823" width="411" height="823" xmlns="http://www.w3.org/2000/svg" xmlns:xlink="http://www.w3.org/1999/xlink" version="1.1"><rect x="0" y="0" width="411" height="823" fill="#FFFFFF"></rect><defs><linearGradient id="grad1_0" x1="0%" y1="0%" x2="100%" y2="100%"><stop offset="30%" stop-color="#ffffff" stop-opacity="1"></stop><stop offset="70%" stop-color="#ffffff" stop-opacity="1"></stop></linearGradient></defs><defs><linearGradient id="grad2_0" x1="0%" y1="0%" x2="100%" y2="100%"><stop offset="30%" stop-color="#ffffff" stop-opacity="1"></stop><stop offset="70%" stop-color="#ffffff" stop-opacity="1"></stop></linearGradient></defs><g transform="translate(411, 0)"><path d="M0 155C-17.1 161.1 -34.1 167.2 -54.7 168.3C-75.3 169.5 -99.3 165.8 -108.7 149.6C-118.1 133.5 -112.8 104.9 -120.5 87.6C-128.2 70.3 -148.9 64.3 -158.8 51.6C-168.7 38.9 -167.9 19.4 -167 0L0 0Z" fill="#4A5CFF"></path></g><g transform="translate(0, 823)"><path d="M0 -172C16.3 -164.5 32.5 -157.1 49.8 -153.1C67 -149.1 85.2 -148.6 103.5 -142.4C121.7 -136.1 140.1 -124.1 148.1 -107.6C156 -91 153.5 -70 157.9 -51.3C162.3 -32.6 173.6 -16.3 185 0L0 0Z" fill="#4A5CFF"></path></g></svg>