<svg xmlns="http://www.w3.org/2000/svg" viewBox="0 0 64 64"><path d="M40.78,40.63h-.05l-3.07-2.15V36.14a12,12,0,0,0,5.22-6.36,5.57,5.57,0,0,0,3.29-9.86A7.19,7.19,0,0,0,47,16.67v-1a5.77,5.77,0,0,0,2.56-4.07l.06-.46A1,1,0,0,0,48.87,10l-3.26-1A6.94,6.94,0,0,0,47,4.92a1,1,0,0,0-1-1H24.3A7.27,7.27,0,0,0,17,11.18v5.49a7.19,7.19,0,0,0,.79,3.25A5.58,5.58,0,0,0,21,29.78a11.52,11.52,0,0,0,5.32,6.42v2.28l-3.07,2.15h-.05A12.54,12.54,0,0,0,10.7,53.15v3.29a3.64,3.64,0,0,0,3.63,3.64H49.67a3.64,3.64,0,0,0,3.63-3.64V53.15A12.54,12.54,0,0,0,40.78,40.63Zm-4-.3,2.29,1.6-2.7,4.72-3-2.56ZM46.19,24.2a3.59,3.59,0,0,1-2.77,3.49,12.41,12.41,0,0,0,.17-2V22.79A7.34,7.34,0,0,0,45,21.58,3.55,3.55,0,0,1,46.19,24.2ZM19,11.18A5.27,5.27,0,0,1,24.3,5.92H44.86a5,5,0,0,1-1.71,2.84,8.48,8.48,0,0,1-4.76,1.74,1,1,0,0,0,0,2,10.26,10.26,0,0,0,5.55-1.86l3.53,1a3.79,3.79,0,0,1-2,2.49,1,1,0,0,0-.55.89v1.61a5.28,5.28,0,0,1-1.37,3.53V18.87a3.37,3.37,0,0,0-3.36-3.36h-6c-3.19,0-4.81-.13-6.59-2.93a1,1,0,0,0-1.12-.43,1,1,0,0,0-.72,1c0,2.71-1.63,5.5-4.35,5.5a1,1,0,0,0-1,1v.59A5.28,5.28,0,0,1,19,16.67Zm-1.23,13A3.55,3.55,0,0,1,19,21.58a7.34,7.34,0,0,0,1.44,1.21v3.3a11.9,11.9,0,0,0,.12,1.59A3.6,3.6,0,0,1,17.81,24.2Zm4.6,1.89V20.52a6.65,6.65,0,0,0,5-5c2,2,4.26,2,6.76,2h6a1.36,1.36,0,0,1,1.36,1.36v6.87a9.82,9.82,0,0,1-9.41,9.94,9.6,9.6,0,0,1-9.77-9.59ZM32,37.68h.21a11,11,0,0,0,3.45-.62v1.57L32,42.69l-3.66-4.06V37.08A11.51,11.51,0,0,0,32,37.68Zm-4.81,2.65,3.38,3.76-3,2.56-2.7-4.72ZM51.3,56.44a1.64,1.64,0,0,1-1.63,1.64H14.33a1.64,1.64,0,0,1-1.63-1.64V53.15A10.53,10.53,0,0,1,23,42.64l3.47,6.06a1,1,0,0,0,.7.49h.17A1,1,0,0,0,28,49l4-3.46L36,49a1,1,0,0,0,.65.24h.17a1,1,0,0,0,.7-.49L41,42.64A10.53,10.53,0,0,1,51.3,53.15ZM28.83,20.84V22.1a1,1,0,0,1-2,0V20.84a1,1,0,0,1,2,0Zm6.34,1.26V20.84a1,1,0,0,1,2,0V22.1a1,1,0,0,1-2,0ZM32,29.59a3.33,3.33,0,0,1-2.68-1.38A1,1,0,1,1,30.94,27a1.34,1.34,0,0,0,2.12,0,1,1,0,1,1,1.62,1.17A3.33,3.33,0,0,1,32,29.59Zm1.31,20.25A1.31,1.31,0,1,1,32,48.53,1.31,1.31,0,0,1,33.31,49.84Zm0,4.93A1.31,1.31,0,1,1,32,53.46,1.31,1.31,0,0,1,33.31,54.77Z"/></svg>