<svg width="411" height="149" viewBox="0 0 411 149" fill="none" xmlns="http://www.w3.org/2000/svg">
<path fill-rule="evenodd" clip-rule="evenodd" d="M0 140.805L17.125 130.748C34.25 120.69 68.5 100.575 102.75 100.575C137 100.575 171.25 120.69 205.5 134.1C239.75 147.51 274 154.215 308.25 144.158C342.5 134.1 376.75 107.28 393.875 93.87L411 80.46V0H393.875C376.75 0 342.5 0 308.25 0C274 0 239.75 0 205.5 0C171.25 0 137 0 102.75 0C68.5 0 34.25 0 17.125 0H0V140.805Z" fill="#4A5CFF"/>
<path d="M155.386 65.7568H145.657V76H141.457V51.8281H156.813V55.2148H145.657V62.4033H155.386V65.7568ZM167.306 76.332C164.749 76.332 162.674 75.5296 161.08 73.9248C159.497 72.3089 158.706 70.1618 158.706 67.4834V66.9854C158.706 65.1924 159.049 63.5931 159.735 62.1875C160.433 60.7708 161.407 59.6696 162.657 58.8838C163.908 58.098 165.302 57.7051 166.841 57.7051C169.287 57.7051 171.174 58.4854 172.502 60.0459C173.841 61.6064 174.511 63.8145 174.511 66.6699V68.2969H162.773C162.895 69.7799 163.388 70.9531 164.251 71.8164C165.125 72.6797 166.221 73.1113 167.538 73.1113C169.386 73.1113 170.892 72.3643 172.054 70.8701L174.229 72.9453C173.509 74.0189 172.546 74.8545 171.34 75.4521C170.145 76.0387 168.8 76.332 167.306 76.332ZM166.824 60.9424C165.717 60.9424 164.821 61.3298 164.135 62.1045C163.46 62.8792 163.028 63.9583 162.84 65.3418H170.526V65.043C170.438 63.6927 170.078 62.6745 169.447 61.9883C168.816 61.291 167.942 60.9424 166.824 60.9424ZM185.567 76.332C183.011 76.332 180.936 75.5296 179.342 73.9248C177.759 72.3089 176.968 70.1618 176.968 67.4834V66.9854C176.968 65.1924 177.311 63.5931 177.997 62.1875C178.694 60.7708 179.668 59.6696 180.919 58.8838C182.17 58.098 183.564 57.7051 185.103 57.7051C187.549 57.7051 189.436 58.4854 190.764 60.0459C192.103 61.6064 192.772 63.8145 192.772 66.6699V68.2969H181.035C181.157 69.7799 181.649 70.9531 182.513 71.8164C183.387 72.6797 184.483 73.1113 185.8 73.1113C187.648 73.1113 189.153 72.3643 190.315 70.8701L192.49 72.9453C191.771 74.0189 190.808 74.8545 189.602 75.4521C188.406 76.0387 187.062 76.332 185.567 76.332ZM185.086 60.9424C183.979 60.9424 183.083 61.3298 182.396 62.1045C181.721 62.8792 181.29 63.9583 181.102 65.3418H188.788V65.043C188.7 63.6927 188.34 62.6745 187.709 61.9883C187.078 61.291 186.204 60.9424 185.086 60.9424ZM195.163 66.8857C195.163 64.1188 195.805 61.8997 197.089 60.2285C198.373 58.5462 200.094 57.7051 202.252 57.7051C204.156 57.7051 205.694 58.3691 206.867 59.6973V50.5H210.901V76H207.249L207.05 74.1406C205.843 75.6016 204.233 76.332 202.219 76.332C200.116 76.332 198.411 75.4854 197.105 73.792C195.811 72.0986 195.163 69.7965 195.163 66.8857ZM199.197 67.2344C199.197 69.0605 199.546 70.4883 200.243 71.5176C200.951 72.5358 201.953 73.0449 203.248 73.0449C204.897 73.0449 206.104 72.3089 206.867 70.8369V63.167C206.126 61.7282 204.93 61.0088 203.281 61.0088C201.975 61.0088 200.968 61.529 200.26 62.5693C199.551 63.5986 199.197 65.1536 199.197 67.2344ZM228.134 69.7744C228.134 68.7119 227.757 67.8929 227.005 67.3174C226.263 66.7419 224.919 66.1608 222.971 65.5742C221.023 64.9876 219.473 64.3346 218.322 63.6152C216.12 62.2318 215.019 60.4277 215.019 58.2031C215.019 56.2552 215.81 54.6504 217.393 53.3887C218.986 52.127 221.05 51.4961 223.585 51.4961C225.267 51.4961 226.767 51.806 228.084 52.4258C229.401 53.0456 230.436 53.931 231.188 55.082C231.941 56.222 232.317 57.4893 232.317 58.8838H228.134C228.134 57.6221 227.735 56.637 226.938 55.9287C226.153 55.2093 225.024 54.8496 223.552 54.8496C222.179 54.8496 221.111 55.1429 220.348 55.7295C219.595 56.3161 219.219 57.1351 219.219 58.1865C219.219 59.0719 219.628 59.8135 220.447 60.4111C221.266 60.9977 222.617 61.5732 224.498 62.1377C226.38 62.6911 227.89 63.3275 229.03 64.0469C230.17 64.7552 231.006 65.5742 231.537 66.5039C232.068 67.4225 232.334 68.5016 232.334 69.7412C232.334 71.7555 231.559 73.3604 230.01 74.5557C228.471 75.7399 226.38 76.332 223.734 76.332C221.986 76.332 220.375 76.0111 218.903 75.3691C217.442 74.7161 216.302 73.8197 215.483 72.6797C214.675 71.5397 214.271 70.2116 214.271 68.6953H218.472C218.472 70.0677 218.925 71.1302 219.833 71.8828C220.741 72.6354 222.041 73.0117 223.734 73.0117C225.195 73.0117 226.291 72.7184 227.021 72.1318C227.763 71.5342 228.134 70.7484 228.134 69.7744ZM241.913 70.2227L245.565 58.0371H249.865L242.727 78.7227C241.631 81.7441 239.771 83.2549 237.148 83.2549C236.562 83.2549 235.914 83.1553 235.206 82.9561V79.835L235.97 79.8848C236.988 79.8848 237.752 79.6966 238.261 79.3203C238.781 78.9551 239.19 78.3353 239.489 77.4609L240.07 75.917L233.762 58.0371H238.111L241.913 70.2227ZM262.267 71.1191C262.267 70.3997 261.968 69.8519 261.37 69.4756C260.784 69.0993 259.804 68.7673 258.432 68.4795C257.059 68.1917 255.914 67.8265 254.995 67.3838C252.981 66.4098 251.974 64.9987 251.974 63.1504C251.974 61.6009 252.627 60.306 253.933 59.2656C255.239 58.2253 256.899 57.7051 258.913 57.7051C261.06 57.7051 262.792 58.2363 264.109 59.2988C265.438 60.3613 266.102 61.7393 266.102 63.4326H262.067C262.067 62.6579 261.78 62.016 261.204 61.5068C260.629 60.9867 259.865 60.7266 258.913 60.7266C258.028 60.7266 257.303 60.9313 256.738 61.3408C256.185 61.7503 255.908 62.2982 255.908 62.9844C255.908 63.6042 256.168 64.0856 256.688 64.4287C257.209 64.7718 258.26 65.1204 259.843 65.4746C261.425 65.8177 262.665 66.2327 263.562 66.7197C264.469 67.1956 265.139 67.7712 265.57 68.4463C266.013 69.1214 266.234 69.9404 266.234 70.9033C266.234 72.5192 265.565 73.8307 264.226 74.8379C262.886 75.834 261.132 76.332 258.963 76.332C257.491 76.332 256.179 76.0664 255.028 75.5352C253.877 75.0039 252.981 74.2734 252.339 73.3438C251.697 72.4141 251.376 71.4124 251.376 70.3389H255.294C255.349 71.2907 255.709 72.0267 256.373 72.5469C257.037 73.056 257.917 73.3105 259.013 73.3105C260.075 73.3105 260.883 73.1113 261.437 72.7129C261.99 72.3034 262.267 71.7721 262.267 71.1191Z" fill="white"/>
</svg>
